<svg xmlns="http://www.w3.org/2000/svg" width="38.579" height="38.579" viewBox="0 0 38.579 38.579"><path d="M33.382,0H5.2A5.2,5.2,0,0,0,0,5.2V33.38a5.2,5.2,0,0,0,5.2,5.2H19.1l.024-13.786H15.542a.845.845,0,0,1-.845-.842l-.017-4.444a.845.845,0,0,1,.845-.848H19.1V14.365c0-4.983,3.043-7.7,7.488-7.7h3.648a.845.845,0,0,1,.845.845v3.747a.845.845,0,0,1-.845.845H28c-2.417,0-2.885,1.149-2.885,2.835v3.717h5.312a.845.845,0,0,1,.839.945l-.527,4.444a.845.845,0,0,1-.839.746H25.136l-.024,13.786h8.27a5.2,5.2,0,0,0,5.2-5.2V5.2A5.2,5.2,0,0,0,33.382,0Z" transform="translate(-0.002)" fill="#d5d5d5"/></svg>