<svg xmlns="http://www.w3.org/2000/svg" width="38.476" height="38.476" viewBox="0 0 38.476 38.476"><g transform="translate(0 0)"><path d="M27.014,0H11.462A11.475,11.475,0,0,0,0,11.462V27.014A11.475,11.475,0,0,0,11.462,38.476H27.014A11.475,11.475,0,0,0,38.476,27.014V11.462A11.475,11.475,0,0,0,27.014,0Zm7.591,27.014a7.592,7.592,0,0,1-7.591,7.591H11.462a7.592,7.592,0,0,1-7.591-7.591V11.462a7.591,7.591,0,0,1,7.591-7.591H27.014a7.591,7.591,0,0,1,7.591,7.591V27.014Z" fill="#d5d5d5"/><path d="M142.951,133a9.951,9.951,0,1,0,9.951,9.951A9.962,9.962,0,0,0,142.951,133Zm0,16.032a6.081,6.081,0,1,1,6.081-6.081A6.081,6.081,0,0,1,142.951,149.032Z" transform="translate(-123.713 -123.713)" fill="#d5d5d5"/><circle cx="2.385" cy="2.385" r="2.385" transform="translate(26.824 6.977)" fill="#d5d5d5"/></g></svg>