<svg xmlns="http://www.w3.org/2000/svg" width="120.711" height="122.622" viewBox="0 0 120.711 122.622"><path d="M664.519,748.348h-.436a17.569,17.569,0,0,0-17.41,17.685v45.114h35.256V766.033A17.57,17.57,0,0,0,664.519,748.348Zm-7.793,52.44a3.051,3.051,0,1,1,3-3.051A3.027,3.027,0,0,1,656.725,800.788Zm0-15.252a3.051,3.051,0,1,1,3-3.05A3.027,3.027,0,0,1,656.725,785.536Zm14.837,0a3.051,3.051,0,1,1,3-3.05A3.027,3.027,0,0,1,671.563,785.536Zm0-15.252a3.051,3.051,0,1,1,3-3.05A3.027,3.027,0,0,1,671.563,770.285Z" transform="translate(-603.812 -688.526)" fill="#f5f5f5"/><path d="M644.4,600.277H557.476a17.077,17.077,0,0,0-16.892,17.159v88.3a17.248,17.248,0,0,0,7.13,13.976V677.507c0-29.613,23.716-53.7,52.867-53.7h.983c29.151,0,52.867,24.091,52.867,53.7v15.686a4.173,4.173,0,1,1-8.346,0V677.507c0-24.938-19.972-45.226-44.522-45.226h-.983c-24.549,0-44.521,20.288-44.521,45.226v45.326c.467.04.939.065,1.416.065h3.439a4.316,4.316,0,0,1-.095-.894v-44.36a40.33,40.33,0,0,1,5.974-21.18,4.134,4.134,0,0,1,5.75-1.344,4.279,4.279,0,0,1,1.323,5.843,31.763,31.763,0,0,0-4.7,16.682V722a4.346,4.346,0,0,1-.095.894H575.1V677.785a25.992,25.992,0,0,1,25.756-26.163h.435a25.991,25.991,0,0,1,25.756,26.163V722.9h4.822V677.646c0-17.362-13.9-31.487-31-31.487h-.711a30.532,30.532,0,0,0-16.786,5.012,4.133,4.133,0,0,1-5.769-1.262,4.28,4.28,0,0,1,1.242-5.861,38.766,38.766,0,0,1,21.313-6.367h.711c21.693,0,39.342,17.928,39.342,39.965V722.9h4.19a16.657,16.657,0,0,0,1.682-.086V707.888a4.173,4.173,0,1,1,8.346,0v11.635a17.25,17.25,0,0,0,6.864-13.783v-88.3A17.077,17.077,0,0,0,644.4,600.277Z" transform="translate(-540.584 -600.277)" fill="#f5f5f5"/></svg>