<svg xmlns="http://www.w3.org/2000/svg" width="246.417" height="89.338" viewBox="0 0 246.417 89.338"><g transform="translate(-677 -371)"><g transform="translate(677 371.081)"><path d="M659.649,748.348h-.317a12.775,12.775,0,0,0-12.659,12.859v32.8h25.635v-32.8A12.775,12.775,0,0,0,659.649,748.348Zm-5.667,38.13a2.218,2.218,0,1,1,2.184-2.218A2.2,2.2,0,0,1,653.982,786.478Zm0-11.09a2.218,2.218,0,1,1,2.184-2.218A2.2,2.2,0,0,1,653.982,775.388Zm10.788,0a2.218,2.218,0,1,1,2.184-2.218A2.2,2.2,0,0,1,664.771,775.388Zm0-11.09a2.218,2.218,0,1,1,2.184-2.218A2.2,2.2,0,0,1,664.771,764.3Z" transform="translate(-615.508 -704.85)" fill="#f5f5f5"/><path d="M616.073,600.277H552.866a12.417,12.417,0,0,0-12.282,12.476v64.207a12.541,12.541,0,0,0,5.184,10.162V656.432c0-21.532,17.244-39.049,38.44-39.049h.715c21.2,0,38.441,17.517,38.441,39.049v11.406a3.035,3.035,0,1,1-6.068,0V656.432c0-18.133-14.522-32.885-32.372-32.885h-.715c-17.85,0-32.372,14.752-32.372,32.885V689.39c.34.029.683.048,1.03.048h2.5a3.14,3.14,0,0,1-.069-.65V656.533a29.325,29.325,0,0,1,4.344-15.4,3.006,3.006,0,0,1,4.181-.977,3.111,3.111,0,0,1,.962,4.248,23.1,23.1,0,0,0-3.419,12.129v32.254a3.161,3.161,0,0,1-.069.65h4.383v-32.8a18.9,18.9,0,0,1,18.727-19.023h.317a18.9,18.9,0,0,1,18.727,19.023v32.8h3.506v-32.9a22.744,22.744,0,0,0-22.538-22.895H583.9a22.2,22.2,0,0,0-12.206,3.644,3.006,3.006,0,0,1-4.195-.917,3.112,3.112,0,0,1,.9-4.261,28.188,28.188,0,0,1,15.5-4.63h.517a28.868,28.868,0,0,1,28.606,29.059v32.9h3.047a12.111,12.111,0,0,0,1.223-.063V678.522a3.035,3.035,0,1,1,6.068,0v8.46a12.543,12.543,0,0,0,4.991-10.022V612.753A12.417,12.417,0,0,0,616.073,600.277Z" transform="translate(-540.584 -600.277)" fill="#f5f5f5"/></g><g transform="translate(776.423 371)"><path d="M893.292,640.149a2.147,2.147,0,0,1-1.548-.646,2.218,2.218,0,0,1-.636-1.572V611.708a.493.493,0,0,0-.553-.562h-9.342a2.188,2.188,0,0,1-2.183-2.218v-6.71A2.188,2.188,0,0,1,881.214,600h30.762a2.091,2.091,0,0,1,1.548.646,2.158,2.158,0,0,1,.636,1.573v6.71a2.157,2.157,0,0,1-.636,1.572,2.089,2.089,0,0,1-1.548.646h-9.342a.493.493,0,0,0-.553.562V637.93a2.219,2.219,0,0,1-.636,1.572,2.089,2.089,0,0,1-1.548.646Z" transform="translate(-879.031 -600)" fill="#eccb22"/><path d="M1018.692,600a2.09,2.09,0,0,1,1.547.646,2.157,2.157,0,0,1,.636,1.573V637.93a2.219,2.219,0,0,1-.636,1.572,2.088,2.088,0,0,1-1.547.646h-6.605a2.148,2.148,0,0,1-1.548-.646,2.218,2.218,0,0,1-.635-1.572V602.218a2.187,2.187,0,0,1,2.183-2.218Z" transform="translate(-971.458 -600)" fill="#eccb22"/><path d="M1070.069,630.1a.493.493,0,0,0-.553.561v7.272a2.22,2.22,0,0,1-.635,1.572,2.089,2.089,0,0,1-1.548.646h-6.606a2.146,2.146,0,0,1-1.548-.646,2.216,2.216,0,0,1-.636-1.572V602.218a2.188,2.188,0,0,1,2.183-2.218h17.025a14.15,14.15,0,0,1,10.5,4.436,15.061,15.061,0,0,1-10.668,25.661Zm0-18.951a.493.493,0,0,0-.553.562v6.682a.492.492,0,0,0,.553.561h7.683a3.856,3.856,0,0,0,3.842-3.987,3.651,3.651,0,0,0-1.188-2.695,3.714,3.714,0,0,0-2.708-1.123Z" transform="translate(-1005.81 -600)" fill="#eccb22"/><path d="M893.292,807.595a2.146,2.146,0,0,1-1.548-.645,2.218,2.218,0,0,1-.636-1.572V779.155a.493.493,0,0,0-.553-.562h-9.342a2.188,2.188,0,0,1-2.183-2.218v-6.71a2.188,2.188,0,0,1,2.183-2.218h30.762a2.091,2.091,0,0,1,1.548.646,2.158,2.158,0,0,1,.636,1.572v6.71a2.158,2.158,0,0,1-.636,1.572,2.091,2.091,0,0,1-1.548.646h-9.342a.493.493,0,0,0-.553.562v26.223a2.219,2.219,0,0,1-.636,1.572,2.089,2.089,0,0,1-1.548.645Z" transform="translate(-879.031 -718.257)" fill="#004241"/><path d="M991.119,802.009a.5.5,0,0,0-.5.365l-1.465,3.79a2.035,2.035,0,0,1-2.045,1.431h-7.075a2.087,2.087,0,0,1-1.824-.982,2.138,2.138,0,0,1-.221-2.05l13.736-35.712a2,2,0,0,1,2.045-1.4h9.591a2,2,0,0,1,2.045,1.432l13.349,35.684a2.2,2.2,0,0,1-.221,2.078,2.1,2.1,0,0,1-1.824.954h-7.048a2.005,2.005,0,0,1-2.045-1.431l-1.409-3.79a.519.519,0,0,0-.525-.365Zm7.9-18.811a.519.519,0,0,0-.525-.365.5.5,0,0,0-.5.337L995.32,790.1a.547.547,0,0,0,.083.506.468.468,0,0,0,.443.252h5.251a.523.523,0,0,0,.443-.224.615.615,0,0,0,.083-.534Z" transform="translate(-948.804 -718.257)" fill="#004241"/><path d="M1161.7,796.449a2.091,2.091,0,0,1,1.548.645,2.16,2.16,0,0,1,.635,1.572v6.71a2.22,2.22,0,0,1-.635,1.572,2.089,2.089,0,0,1-1.548.645h-29.656a2.147,2.147,0,0,1-1.548-.645,2.218,2.218,0,0,1-.635-1.572V769.665a2.188,2.188,0,0,1,2.183-2.218h6.605a2.09,2.09,0,0,1,1.547.646,2.157,2.157,0,0,1,.636,1.572v26.223a.492.492,0,0,0,.552.562Z" transform="translate(-1056.176 -718.257)" fill="#004241"/><path d="M1268.077,797.207a.6.6,0,0,0-.138.393v7.777a2.219,2.219,0,0,1-.636,1.572,2.087,2.087,0,0,1-1.548.645h-6.605a2.148,2.148,0,0,1-1.548-.645,2.218,2.218,0,0,1-.635-1.572V769.665a2.187,2.187,0,0,1,2.184-2.218h6.605a2.09,2.09,0,0,1,1.548.646,2.158,2.158,0,0,1,.636,1.572v9.686a.478.478,0,0,0,.359.505.5.5,0,0,0,.608-.14l10.336-11.539a2.065,2.065,0,0,1,1.631-.73h8.9a2.025,2.025,0,0,1,1.99,1.319,2.1,2.1,0,0,1-.387,2.415l-10.64,11.9a.546.546,0,0,0-.083.674l11.967,20.467a2.146,2.146,0,0,1,0,2.246,2.022,2.022,0,0,1-1.907,1.123h-7.656a2.047,2.047,0,0,1-1.88-1.094l-8.07-13.813a.51.51,0,0,0-.414-.281.552.552,0,0,0-.47.169Z" transform="translate(-1145.943 -718.257)" fill="#004241"/></g></g></svg>