<svg xmlns="http://www.w3.org/2000/svg" width="31.094" height="32.144" viewBox="0 0 31.094 32.144"><g transform="translate(-0.489)"><path d="M27.266,19.1v7.343H4.806V19.1H.489v9.5a2.158,2.158,0,0,0,2.162,2.157H29.421a2.158,2.158,0,0,0,2.162-2.157V19.1Z" transform="translate(0 1.38)" fill="#00b9a0"/><path d="M15.063,19.757l-6.18-7.468s-.94-.888.079-.888h3.483V.53S12.306,0,13.1,0h4.9c.575,0,.562.446.562.446V11.177h3.215c1.237,0,.306.93.306.93s-5.258,6.98-5.992,7.713A.686.686,0,0,1,15.063,19.757Z" transform="translate(0.578 0)" fill="#00b9a0"/></g></svg>