<svg xmlns="http://www.w3.org/2000/svg" width="70.803" height="70.303" viewBox="0 0 70.803 70.303"><g transform="translate(-2.5 -3)"><g transform="translate(13.541 12.121)"><path d="M0,0H18.061V2.424H0Z" transform="translate(2.379 6.177) rotate(-19.993)" fill="#68607c"/><path d="M0,0H2.424V27.427H0Z" transform="translate(27.383 3.86) rotate(-45)" fill="#68607c"/><path d="M0,0H2.423V14.682H0Z" transform="matrix(0.136, -0.991, 0.991, 0.136, 30.504, 24.388)" fill="#68607c"/><path d="M0,0H2.424V21.684H0Z" transform="translate(1.027 11.971) rotate(-63.435)" fill="#68607c"/><path d="M0,0H2.425V19.416H0Z" transform="matrix(0.448, -0.894, 0.894, 0.448, 1.839, 43.903)" fill="#68607c"/><path d="M31,33h2.424V53.606H31Z" transform="translate(-7.601 -5.758)" fill="#68607c"/><path d="M0,0H37.544V2.424H0Z" transform="matrix(0.544, -0.839, 0.839, 0.544, 0.045, 35.059)" fill="#68607c"/><path d="M0,0H27.675V2.424H0Z" transform="matrix(0.691, -0.723, 0.723, 0.691, 27.804, 48.794)" fill="#68607c"/><path d="M0,0H2.424V39.1H0Z" transform="matrix(0.86, -0.511, 0.511, 0.86, 0, 14.858)" fill="#68607c"/></g><path d="M19.97,45.485a8.3,8.3,0,0,1-.9,3.794,8.483,8.483,0,1,1,.9-3.794Z" transform="translate(0 7.212)" fill="#87b7be"/><path d="M39.921,49.97a8.367,8.367,0,0,1,2.048,5.515,8.485,8.485,0,1,1-16.5-2.788A8.474,8.474,0,0,1,39.921,49.97Z" transform="translate(4.667 9.333)" fill="#00b59d"/><path d="M55.485,25a8.485,8.485,0,0,1,0,16.97A8.52,8.52,0,0,1,47,33.485a7.105,7.105,0,0,1,.085-1.139A8.466,8.466,0,0,1,55.485,25Z" transform="translate(9.333 4.667)" fill="#f7cb00"/><path d="M41.885,31.624A8.481,8.481,0,0,1,25,30.485a8.3,8.3,0,0,1,.9-3.794A8.484,8.484,0,0,1,41.97,30.485,7.106,7.106,0,0,1,41.885,31.624Z" transform="translate(4.667 4.03)" fill="#c44e49"/><path d="M33.485,3a8.485,8.485,0,1,1,0,16.97A8.482,8.482,0,0,1,25,11.485,8.479,8.479,0,0,1,33.485,3Z" transform="translate(4.667 0)" fill="#204443"/><path d="M19.461,16.588a8.462,8.462,0,0,1,.509,2.9,8.3,8.3,0,0,1-.9,3.794,8.482,8.482,0,1,1,.388-6.691Z" transform="translate(0 1.697)" fill="#f5f5f5" stroke="#aeaeae" stroke-width="1"/></g></svg>