<svg xmlns="http://www.w3.org/2000/svg" xmlns:xlink="http://www.w3.org/1999/xlink" width="56.847" height="51.521" viewBox="0 0 56.847 51.521"><defs><linearGradient id="a" x1="0.694" y1="-0.103" x2="1.735" y2="1" gradientUnits="objectBoundingBox"><stop offset="0" stop-color="#00a48e"/><stop offset="1" stop-color="#00cfb3"/></linearGradient></defs><g transform="translate(56.847 51.521) rotate(180)"><g transform="translate(0 0)"><path d="M7.94,12.241H0v17.68H7.94l15,11.127s2.752,2.308,2.752-.075V.843c0-1.871-2.42-.044-2.42-.044Z" transform="translate(0 4.68)" fill="url(#a)"/><path d="M3.449.592A2.018,2.018,0,0,0,.6,3.446a13.237,13.237,0,0,1,3.885,9.385A13.24,13.24,0,0,1,.6,22.232,2.019,2.019,0,0,0,.6,25.1a1.988,1.988,0,0,0,1.429.59,2,2,0,0,0,1.425-.59A17.32,17.32,0,0,0,8.517,12.831,17.231,17.231,0,0,0,3.449.592Z" transform="translate(30.794 12.878)" fill="url(#a)"/><path d="M3.449.6A2.023,2.023,0,1,0,.588,3.456,22.209,22.209,0,0,1,7.133,19.211,22.348,22.348,0,0,1,.588,35.047a2.029,2.029,0,0,0,0,2.857,2.039,2.039,0,0,0,2.861,0,26.4,26.4,0,0,0,7.72-18.694A26.292,26.292,0,0,0,3.449.6Z" transform="translate(36.268 6.515)" fill="url(#a)"/><path d="M3.447.6A2.019,2.019,0,1,0,.59,3.449,31.389,31.389,0,0,1,9.831,25.733,31.469,31.469,0,0,1,.59,48.077a2.02,2.02,0,0,0,2.857,2.857,35.555,35.555,0,0,0,10.426-25.2A35.466,35.466,0,0,0,3.447.6Z" transform="translate(42.974)" fill="url(#a)"/></g></g></svg>