<svg xmlns="http://www.w3.org/2000/svg" xmlns:xlink="http://www.w3.org/1999/xlink" width="363.142" height="292.984" viewBox="0 0 363.142 292.984"><defs><linearGradient id="a" x1="0.718" y1="1" x2="0.486" y2="0.059" gradientUnits="objectBoundingBox"><stop offset="0" stop-color="#00b59d"/><stop offset="1" stop-color="#00d4b7"/></linearGradient></defs><g transform="translate(-27.48 -160.205)"><path d="M236.174,336.189a56.434,56.434,0,0,1-22.946-4.947,70.7,70.7,0,0,1-20.175-13.753A94.577,94.577,0,0,1,176.8,296.565a117.555,117.555,0,0,1-11.191-26.456,132.608,132.608,0,0,1-5.05-41.21,138.8,138.8,0,0,1,8.83-44.264,150.336,150.336,0,0,1,25.461-43.4,175.056,175.056,0,0,1,19.828-20.146,204.964,204.964,0,0,1,25.016-18.459c17.128-10.781,32.074-19.665,45.691-27.162a415.21,415.21,0,0,1,37.279-18.443,197.121,197.121,0,0,1,30.644-10.5A108.446,108.446,0,0,1,379.1,43.2a84.343,84.343,0,0,1,23.388,3.255,109.508,109.508,0,0,1,22.072,9.2,230.175,230.175,0,0,1,22.708,14.3c7.9,5.528,16.347,11.847,25.287,18.537l.01.007.052.04.038.028c2.531,1.894,5.68,4.251,8.808,6.578a119.661,119.661,0,0,1,17.186,15.476,98.882,98.882,0,0,1,12.292,16.736,92.144,92.144,0,0,1,7.9,17.67,96.706,96.706,0,0,1,4.017,18.279,120.464,120.464,0,0,1-1.532,36.706,174.749,174.749,0,0,1-10.863,35.31,234.859,234.859,0,0,1-34.079,56.369,47.024,47.024,0,0,1-16.419,12.59,82.005,82.005,0,0,1-21.715,6.49c-16.027,2.745-35.2,2.782-55.5,2.821h-.013c-38.465.073-82.062.156-123.359,17.7A59.205,59.205,0,0,1,236.174,336.189Z" transform="translate(-133 117)" fill="url(#a)"/><g transform="translate(-1 45)"><g transform="translate(70 262.09)"><path d="M661.1,748.348h-.352a14.2,14.2,0,0,0-14.076,14.3v36.475h28.5V762.647A14.205,14.205,0,0,0,661.1,748.348Zm-6.3,42.4a2.467,2.467,0,1,1,2.428-2.466A2.447,2.447,0,0,1,654.8,790.746Zm0-12.331a2.466,2.466,0,1,1,2.428-2.466A2.447,2.447,0,0,1,654.8,778.415Zm12,0a2.466,2.466,0,1,1,2.428-2.466A2.447,2.447,0,0,1,666.8,778.415Zm0-12.331a2.466,2.466,0,1,1,2.428-2.466A2.447,2.447,0,0,1,666.8,766.084Z" transform="translate(-612.02 -699.981)" fill="#f5f5f5"/><path d="M624.523,600.277H554.241a13.807,13.807,0,0,0-13.657,13.873v71.394a13.945,13.945,0,0,0,5.765,11.3V662.718c0-23.942,19.174-43.42,42.743-43.42h.8c23.569,0,42.744,19.478,42.744,43.42V675.4a3.374,3.374,0,1,1-6.748,0V662.718c0-20.163-16.148-36.566-36-36.566h-.8c-19.848,0-36,16.4-36,36.566v36.647c.378.032.759.053,1.145.053h2.78a3.488,3.488,0,0,1-.076-.723V662.829a32.608,32.608,0,0,1,4.83-17.124,3.343,3.343,0,0,1,4.649-1.086,3.459,3.459,0,0,1,1.07,4.724,25.681,25.681,0,0,0-3.8,13.487v35.865a3.514,3.514,0,0,1-.076.723h4.874V662.943a21.014,21.014,0,0,1,20.824-21.153h.352a21.014,21.014,0,0,1,20.824,21.153v36.475h3.9V662.83a25.29,25.29,0,0,0-25.061-25.457h-.574a24.685,24.685,0,0,0-13.572,4.052,3.342,3.342,0,0,1-4.664-1.02,3.46,3.46,0,0,1,1-4.738,31.343,31.343,0,0,1,17.232-5.148h.574c17.539,0,31.808,14.495,31.808,32.312v36.587h3.388a13.464,13.464,0,0,0,1.36-.07V687.281a3.374,3.374,0,1,1,6.748,0v9.407a13.947,13.947,0,0,0,5.549-11.144V614.15A13.807,13.807,0,0,0,624.523,600.277Z" transform="translate(-540.584 -600.277)" fill="#f5f5f5"/></g><g transform="translate(180.552 262)"><path d="M894.889,644.643a2.387,2.387,0,0,1-1.721-.718,2.466,2.466,0,0,1-.707-1.748V613.018a.548.548,0,0,0-.615-.625H881.459a2.433,2.433,0,0,1-2.428-2.466v-7.461A2.433,2.433,0,0,1,881.459,600h34.2a2.325,2.325,0,0,1,1.721.718,2.4,2.4,0,0,1,.707,1.749v7.461a2.4,2.4,0,0,1-.707,1.748,2.323,2.323,0,0,1-1.721.718H905.276a.548.548,0,0,0-.615.625v29.158a2.468,2.468,0,0,1-.707,1.748,2.323,2.323,0,0,1-1.721.718Z" transform="translate(-879.031 -600)" fill="#eccb22"/><path d="M1019.676,600a2.324,2.324,0,0,1,1.721.718,2.4,2.4,0,0,1,.707,1.749v39.71a2.467,2.467,0,0,1-.707,1.748,2.322,2.322,0,0,1-1.721.718h-7.345a2.389,2.389,0,0,1-1.721-.718,2.466,2.466,0,0,1-.707-1.748v-39.71a2.432,2.432,0,0,1,2.428-2.466Z" transform="translate(-967.154 -600)" fill="#eccb22"/><path d="M1071.359,633.466a.548.548,0,0,0-.615.624v8.086a2.468,2.468,0,0,1-.707,1.748,2.322,2.322,0,0,1-1.721.718h-7.345a2.386,2.386,0,0,1-1.721-.718,2.464,2.464,0,0,1-.707-1.748v-39.71a2.432,2.432,0,0,1,2.428-2.466H1079.9a15.734,15.734,0,0,1,11.678,4.933,16.747,16.747,0,0,1-11.863,28.533Zm0-21.073a.548.548,0,0,0-.615.625v7.43a.548.548,0,0,0,.615.624h8.543a4.287,4.287,0,0,0,4.272-4.433,4.06,4.06,0,0,0-1.322-3,4.13,4.13,0,0,0-3.012-1.249Z" transform="translate(-999.907 -600)" fill="#eccb22"/><path d="M894.889,812.089a2.387,2.387,0,0,1-1.721-.718,2.466,2.466,0,0,1-.707-1.748V780.465a.548.548,0,0,0-.615-.625H881.459a2.433,2.433,0,0,1-2.428-2.466v-7.461a2.433,2.433,0,0,1,2.428-2.466h34.2a2.325,2.325,0,0,1,1.721.718,2.4,2.4,0,0,1,.707,1.748v7.461a2.4,2.4,0,0,1-.707,1.748,2.325,2.325,0,0,1-1.721.718H905.276a.548.548,0,0,0-.615.625v29.158a2.468,2.468,0,0,1-.707,1.748,2.323,2.323,0,0,1-1.721.718Z" transform="translate(-879.031 -712.751)" fill="#004241"/><path d="M992.606,805.877a.557.557,0,0,0-.553.406l-1.629,4.214a2.262,2.262,0,0,1-2.274,1.592h-7.867A2.321,2.321,0,0,1,978.254,811a2.377,2.377,0,0,1-.245-2.279l15.274-39.71a2.227,2.227,0,0,1,2.274-1.561h10.664a2.229,2.229,0,0,1,2.274,1.592l14.844,39.679a2.447,2.447,0,0,1-.246,2.311,2.338,2.338,0,0,1-2.028,1.061h-7.837a2.23,2.23,0,0,1-2.274-1.592l-1.567-4.214a.577.577,0,0,0-.584-.406Zm8.789-20.917a.577.577,0,0,0-.584-.406.554.554,0,0,0-.553.375l-2.981,7.711a.609.609,0,0,0,.092.562.52.52,0,0,0,.492.281h5.839a.582.582,0,0,0,.492-.249.684.684,0,0,0,.092-.594Z" transform="translate(-945.555 -712.751)" fill="#004241"/><path d="M1165.263,799.7a2.325,2.325,0,0,1,1.721.718,2.4,2.4,0,0,1,.707,1.748v7.462a2.468,2.468,0,0,1-.707,1.748,2.322,2.322,0,0,1-1.721.718h-32.975a2.388,2.388,0,0,1-1.721-.718,2.466,2.466,0,0,1-.707-1.748v-39.71a2.432,2.432,0,0,1,2.428-2.466h7.345a2.324,2.324,0,0,1,1.721.718,2.4,2.4,0,0,1,.707,1.748v29.158a.547.547,0,0,0,.614.624Z" transform="translate(-1047.928 -712.751)" fill="#004241"/><path d="M1269.32,800.538a.667.667,0,0,0-.154.437v8.648a2.468,2.468,0,0,1-.707,1.748,2.321,2.321,0,0,1-1.721.718h-7.344a2.388,2.388,0,0,1-1.721-.718,2.466,2.466,0,0,1-.707-1.748v-39.71a2.432,2.432,0,0,1,2.428-2.466h7.344a2.324,2.324,0,0,1,1.721.718,2.4,2.4,0,0,1,.707,1.748v10.77a.531.531,0,0,0,.4.562.556.556,0,0,0,.676-.156l11.493-12.83a2.3,2.3,0,0,1,1.813-.812h9.9a2.251,2.251,0,0,1,2.213,1.467,2.333,2.333,0,0,1-.431,2.685L1283.4,784.835a.607.607,0,0,0-.092.75l13.307,22.758a2.386,2.386,0,0,1,0,2.5,2.249,2.249,0,0,1-2.121,1.248h-8.512a2.275,2.275,0,0,1-2.09-1.217l-8.973-15.359a.568.568,0,0,0-.461-.312.614.614,0,0,0-.523.188Z" transform="translate(-1133.516 -712.751)" fill="#004241"/></g></g></g></svg>