<svg xmlns="http://www.w3.org/2000/svg" width="65.55" height="65.539" viewBox="0 0 65.55 65.539"><g transform="translate(0 -0.041)"><g transform="translate(0 0.041)"><path d="M63.994,22.791A32.79,32.79,0,0,0,19.788,2.714,32.79,32.79,0,0,0,1.645,43.072,32.455,32.455,0,0,0,3.8,48.153a.96.96,0,0,0,1.7-.9,30.8,30.8,0,0,1-1.874-4.294q.18-.228.362-.454a54.667,54.667,0,0,1,5.765-6.1,64.235,64.235,0,0,1,6.936-5.426c.121-.081,2.36-1.434,2.337-1.481l.023.046a8.966,8.966,0,0,0,.627,1.106,9.18,9.18,0,0,0,4.377,3.5,56.31,56.31,0,0,0-1,6.672c-.237,2.471-.348,4.937-.353,7.42a89.7,89.7,0,0,0,1.08,13.984c.007.042.012.083.019.125A30.892,30.892,0,0,1,7.5,50.508a.96.96,0,0,0-1.573,1.1,32.782,32.782,0,0,0,58.071-28.82ZM18.36,23.819l0,.015a9.134,9.134,0,0,0,.021,3.734c.005.025.009.05.015.075l-.06.036a59.817,59.817,0,0,0-7.788,5.5,58.124,58.124,0,0,0-7.55,7.511l-.045.053a30.9,30.9,0,0,1,7.077-28.769l.049.04a78.333,78.333,0,0,1,7.359,6.97c.658.707,1.307,1.422,1.93,2.159l.006.007A9,9,0,0,0,18.36,23.819ZM16.746,15.5c-1.71-1.707-3.5-3.344-5.356-4.889l-.018-.015A30.756,30.756,0,0,1,32.779,1.958a31.1,31.1,0,0,1,5.145.429q-.45.522-.887,1.056a57.889,57.889,0,0,0-3.909,5.363A74.159,74.159,0,0,0,29.1,16.038q-.159.337-.314.676l-.066-.01a9.106,9.106,0,0,0-8.183,2.848C19.325,18.152,18.055,16.8,16.746,15.5ZM20.165,26.66a7.142,7.142,0,0,1,1.382-5.3,7.259,7.259,0,0,1,3.967-2.642l.019,0a7.15,7.15,0,1,1,2.4,14.06A7.3,7.3,0,0,1,20.165,26.66ZM32.779,63.676a31.01,31.01,0,0,1-6.94-.785q-.157-.941-.3-1.886a83.642,83.642,0,0,1-.578-19.845,52.909,52.909,0,0,1,.95-6.512l0-.018a8.528,8.528,0,0,0,.912.086,9.085,9.085,0,0,0,4.343-.885A9.2,9.2,0,0,0,32.569,33c1.214,1.8,2.48,3.558,3.781,5.293A133.746,133.746,0,0,0,46.067,49.92a85.451,85.451,0,0,0,6.444,6.192l.254.217A30.772,30.772,0,0,1,32.779,63.676Zm28.151-18.2a30.725,30.725,0,0,1-6.73,9.553l-.313-.265A89.836,89.836,0,0,1,47.2,48.326l-.009-.01c-2.924-3.12-5.645-6.419-8.264-9.8-1.5-1.942-2.976-3.919-4.338-5.962a7.509,7.509,0,0,1-.583-.858A9.488,9.488,0,0,0,35.1,30.184a9.154,9.154,0,0,0,1.188-3.81l.024-.007q.415-.122.831-.237a54.508,54.508,0,0,1,6.2-1.4c1.327-.231,2.656-.446,3.992-.616q1.952-.252,3.918-.387a.96.96,0,0,0-.134-1.916c-1.46.1-2.925.233-4.375.44q-1.626.212-3.242.494a72.657,72.657,0,0,0-7.265,1.642l-.013,0A9.092,9.092,0,0,0,30.771,17.3l-.119-.051.012-.025A59.986,59.986,0,0,1,35.12,9.272a56.634,56.634,0,0,1,4.225-5.589q.37-.43.749-.852A30.962,30.962,0,0,1,61.667,21.946c-.085-.009-3.868-.3-5.676-.3q-.484,0-.971,0a.96.96,0,1,0,.022,1.921q.5-.006.992,0a53.443,53.443,0,0,1,6.313.394A30.969,30.969,0,0,1,60.93,45.476Z" transform="translate(0 -0.041)" fill="#ffe679"/></g></g></svg>