<svg xmlns="http://www.w3.org/2000/svg" width="46.989" height="76.012" viewBox="0 0 46.989 76.012"><g transform="translate(-10.5)"><path d="M33.995,76.012h0A23.494,23.494,0,0,1,10.5,52.517V23.495A23.494,23.494,0,0,1,33.995,0h0A23.494,23.494,0,0,1,57.489,23.495V52.517A23.494,23.494,0,0,1,33.995,76.012Z" transform="translate(0 0)" fill="#0a3c91"/><path d="M27.548,33.495,27.5,21.056V10L38.556,21.056Z" transform="translate(6.495 3.82)" fill="none" stroke="#fff" stroke-miterlimit="10" stroke-width="3"/><path d="M27.5,51.645V39.207l.048-11.6,11.008,11.6Z" transform="translate(6.495 10.547)" fill="none" stroke="#fff" stroke-miterlimit="10" stroke-width="3"/><line x2="13.768" y2="12.438" transform="translate(20.275 24.895)" fill="none" stroke="#fff" stroke-miterlimit="10" stroke-width="3"/><line x1="13.921" y2="12.438" transform="translate(20.174 37.333)" fill="none" stroke="#fff" stroke-miterlimit="10" stroke-width="3"/></g></svg>