<svg xmlns="http://www.w3.org/2000/svg" width="84.344" height="136.438" viewBox="0 0 84.344 136.438"><g transform="translate(-10.5)"><path d="M52.672,136.438h0A42.171,42.171,0,0,1,10.5,94.267V42.172A42.171,42.171,0,0,1,52.672,0h0A42.171,42.171,0,0,1,94.844,42.172V94.267A42.171,42.171,0,0,1,52.672,136.438Z" transform="translate(0 0)" fill="#0a3c91"/><path d="M27.587,52.172,27.5,29.846V10L47.346,29.846Z" transform="translate(25.172 14.807)" fill="none" stroke="#fff" stroke-miterlimit="10" stroke-width="3"/><path d="M27.5,70.755V48.429l.087-20.823L47.346,48.429Z" transform="translate(25.172 40.876)" fill="none" stroke="#fff" stroke-miterlimit="10" stroke-width="3"/><line x2="24.713" y2="22.326" transform="translate(28.046 44.685)" fill="none" stroke="#fff" stroke-miterlimit="10" stroke-width="3"/><line x1="24.988" y2="22.326" transform="translate(27.865 67.011)" fill="none" stroke="#fff" stroke-miterlimit="10" stroke-width="3"/></g></svg>