<svg xmlns="http://www.w3.org/2000/svg" width="31.931" height="31.931" viewBox="0 0 31.931 31.931"><g transform="translate(0.499 0.5)"><path d="M25.194,52.68a.629.629,0,0,0-.89.89l1.224,1.224a1.552,1.552,0,0,1,0,2.194l-.031.031a1.552,1.552,0,0,1-2.194,0L22.079,55.8a.629.629,0,0,0-.794-.079,10.408,10.408,0,0,1-3.739,1.55.629.629,0,0,0-.506.617v1.729a1.553,1.553,0,0,1-1.552,1.552h-.044a1.553,1.553,0,0,1-1.552-1.552V57.884a.629.629,0,0,0-.506-.617,10.41,10.41,0,0,1-3.739-1.55.63.63,0,0,0-.794.079L7.631,57.019a1.552,1.552,0,0,1-2.194,0l-.031-.031a1.552,1.552,0,0,1,0-2.194L6.629,53.57a.629.629,0,0,0,.079-.794,10.409,10.409,0,0,1-1.55-3.739.629.629,0,0,0-.617-.506H2.811A1.553,1.553,0,0,1,1.26,46.98v-.044a1.553,1.553,0,0,1,1.552-1.552H4.54a.629.629,0,0,0,.617-.506,10.411,10.411,0,0,1,1.55-3.739.629.629,0,0,0-.079-.794L5.405,39.122a1.552,1.552,0,0,1,0-2.194l.031-.031a1.551,1.551,0,0,1,2.194,0L8.854,38.12a.629.629,0,0,0,.89-.89L8.521,36.006a2.81,2.81,0,0,0-3.975,0l-.031.031a2.81,2.81,0,0,0,0,3.975l.867.867a11.642,11.642,0,0,0-1.346,3.246H2.811A2.814,2.814,0,0,0,0,46.936v.044a2.814,2.814,0,0,0,2.81,2.81H4.036a11.635,11.635,0,0,0,1.346,3.246l-.867.867a2.81,2.81,0,0,0,0,3.975l.031.031a2.81,2.81,0,0,0,3.975,0l.867-.867a11.637,11.637,0,0,0,3.246,1.346v1.224a2.814,2.814,0,0,0,2.81,2.811h.044a2.814,2.814,0,0,0,2.81-2.811V58.388a11.635,11.635,0,0,0,3.246-1.346l.867.867a2.81,2.81,0,0,0,3.975,0l.031-.031a2.81,2.81,0,0,0,0-3.974Z" transform="translate(0 -31.492)" fill="#787878" stroke="#9f9f9f" stroke-width="1"/><path d="M135.91,12.633h-1.225a11.638,11.638,0,0,0-1.346-3.246l.867-.867a2.814,2.814,0,0,0,0-3.975l-.031-.031a2.81,2.81,0,0,0-3.974,0l-.867.867a11.637,11.637,0,0,0-3.246-1.346V2.811A2.814,2.814,0,0,0,123.277,0h-.044a2.814,2.814,0,0,0-2.81,2.811V4.539a.629.629,0,1,0,1.259,0V2.811a1.553,1.553,0,0,1,1.552-1.552h.044a1.553,1.553,0,0,1,1.552,1.552V4.539a.63.63,0,0,0,.506.617,10.412,10.412,0,0,1,3.739,1.55.63.63,0,0,0,.794-.079L131.09,5.4a1.551,1.551,0,0,1,2.194,0l.031.031a1.552,1.552,0,0,1,0,2.194l-1.224,1.223a.629.629,0,0,0-.079.794,10.409,10.409,0,0,1,1.55,3.739.63.63,0,0,0,.617.506h1.729a1.553,1.553,0,0,1,1.552,1.552v.044a1.553,1.553,0,0,1-1.552,1.551h-1.729a.629.629,0,0,0,0,1.259h1.729a2.814,2.814,0,0,0,2.81-2.81v-.044A2.814,2.814,0,0,0,135.91,12.633Z" transform="translate(-107.788)" fill="#787878" stroke="#9f9f9f" stroke-width="1"/><path d="M116.45,118.82a2.344,2.344,0,0,1-1.492-.528.629.629,0,1,0-.793.978,3.63,3.63,0,1,0-1.346-2.821.629.629,0,0,0,1.259,0,2.371,2.371,0,1,1,2.371,2.371Z" transform="translate(-100.983 -100.983)" fill="#787878" stroke="#9f9f9f" stroke-width="1"/></g></svg>