<svg xmlns="http://www.w3.org/2000/svg" width="64.532" height="48.4" viewBox="0 0 64.532 48.4"><g transform="translate(0 -63.997)"><g transform="translate(0 63.998)"><g transform="translate(0 0)"><path d="M64.362,88.887c-5.375-9.621-14.21-15.5-24.567-16.595C34.6,65.734,18.311,64.073,17.608,64a1.344,1.344,0,0,0-1.384,1.821A108.4,108.4,0,0,1,19.89,76.617a45.7,45.7,0,0,0-7.212,3.993c-3.616-5.785-11-5.857-11.334-5.857A1.344,1.344,0,0,0,0,76.1c0,7.79,2.715,11.7,4.531,13.444C2.715,91.287,0,95.2,0,102.986a1.344,1.344,0,0,0,1.344,1.344c.337,0,7.719-.072,11.334-5.857a52.576,52.576,0,0,0,10.229,5.285c-.925,1.5-1.4,3.875-1.4,7.294a1.344,1.344,0,0,0,1.344,1.344c.4,0,9.542-.079,14.1-5.42,11.579-.224,21.55-6.288,27.411-16.78A1.345,1.345,0,0,0,64.362,88.887ZM19.524,66.949c4.517.654,11.934,2.263,16.125,5.142-3.864.151-8.8,1.612-13.265,3.445C21.789,73.174,20.469,69.482,19.524,66.949Zm4.707,42.681c.179-3.74,1.042-4.7,1.284-4.891a43.744,43.744,0,0,0,7.685,2.017C30.283,108.809,26.307,109.448,24.231,109.631Zm1.128-4.941v0l.011,0C25.363,104.689,25.367,104.691,25.359,104.69Zm10.941-.36c-7.856,0-20.7-6.45-23.081-8.885a1.342,1.342,0,0,0-.961-.4,1.418,1.418,0,0,0-.246.022,1.345,1.345,0,0,0-.989.789c-1.814,4.208-6.081,5.357-8.3,5.671.42-8.425,4.407-10.677,4.612-10.786a1.351,1.351,0,0,0,0-2.391c-.18-.1-4.191-2.332-4.614-10.779,2.216.324,6.5,1.49,8.3,5.663a1.344,1.344,0,0,0,2.2.407C15.6,81.2,28.443,74.753,36.3,74.753c10.615,0,19.809,5.379,25.339,14.789C56.109,98.952,46.914,104.331,36.3,104.331Z" transform="translate(0 -63.998)" fill="#ffe679"/><path d="M301.356,182.78a19.669,19.669,0,0,1,2.466-10.014,1.344,1.344,0,0,0-2.24-1.488,24.149,24.149,0,0,0,0,23,1.344,1.344,0,1,0,2.237-1.492A19.407,19.407,0,0,1,301.356,182.78Z" transform="translate(-261.023 -157.235)" fill="#ffe679"/><path d="M260.774,170.905a1.346,1.346,0,0,0-1.859.374A21.93,21.93,0,0,0,256,182.78a24.494,24.494,0,0,0,1.493,8.54,1.344,1.344,0,0,0,2.518-.943,21.808,21.808,0,0,1-1.322-7.6,19.669,19.669,0,0,1,2.466-10.014A1.347,1.347,0,0,0,260.774,170.905Z" transform="translate(-223.734 -157.236)" fill="#ffe679"/><circle cx="2.689" cy="2.689" r="2.689" transform="translate(45.71 18.822)" fill="#ffe679"/></g></g></g></svg>