<svg xmlns="http://www.w3.org/2000/svg" width="65.119" height="65.364" viewBox="0 0 65.119 65.364"><path d="M48.945,48.945a27.941,27.941,0,0,0,0-39.773L9.172,48.945a27.941,27.941,0,0,0,39.773,0M47.641,18.3a3.08,3.08,0,0,1,3.26,3.26,3.26,3.26,0,1,1-6.52,0,3.08,3.08,0,0,1,3.26-3.26m0,13.04A3.08,3.08,0,0,1,50.9,34.6a3.26,3.26,0,1,1-6.52,0,3.08,3.08,0,0,1,3.26-3.26m-13.04,0a3.08,3.08,0,0,1,3.26,3.26,3.08,3.08,0,0,1-3.26,3.26,3.08,3.08,0,0,1-3.26-3.26,3.08,3.08,0,0,1,3.26-3.26m0,13.04a3.26,3.26,0,1,1,0,6.52,3.26,3.26,0,1,1,0-6.52M21.56,50.9a3.26,3.26,0,0,1,0-6.52,3.26,3.26,0,1,1,0,6.52m34.557,5.216A38.172,38.172,0,0,1,2,56.117l4.564-4.564A31.581,31.581,0,0,0,51.227,6.89L56.117,2A38.773,38.773,0,0,1,56.117,56.117Z" transform="translate(-2 -2)" fill="#ffe679"/></svg>