<svg xmlns="http://www.w3.org/2000/svg" width="31.931" height="31.931" viewBox="0 0 31.931 31.931"><g transform="translate(-0.213 2.017)"><g transform="translate(0.713 -1.517)"><path d="M16.179-1.517a15.466,15.466,0,1,0,12.193,24.98.629.629,0,0,0-.992-.775,14.207,14.207,0,1,1,3.005-8.739.629.629,0,1,0,1.259,0A15.483,15.483,0,0,0,16.179-1.517Z" transform="translate(-0.713 1.517)" fill="#00b59d" stroke="#00b59d" stroke-width="1"/></g><g transform="translate(15.027 6.399)"><path d="M137.476,75.792a1.028,1.028,0,0,1-.32-.789,1,1,0,0,1,.32-.768,1.308,1.308,0,0,1,1.664,0,1,1,0,0,1,.32.768,1.028,1.028,0,0,1-.32.789,1.308,1.308,0,0,1-1.664,0Zm.2,13.02a.808.808,0,0,1-.245-.629v-9a.809.809,0,0,1,.245-.629.9.9,0,0,1,.629-.224.859.859,0,0,1,.618.224.829.829,0,0,1,.235.629v9a.821.821,0,0,1-.235.64.885.885,0,0,1-.618.213A.9.9,0,0,1,137.679,88.813Z" transform="translate(-137.156 -73.937)" fill="#00b59d" stroke="#00b59d" stroke-width="1"/></g></g></svg>