<svg xmlns="http://www.w3.org/2000/svg" width="27.508" height="31.97" viewBox="0 0 27.508 31.97"><g transform="translate(-71 -677.255)"><path d="M43.7,15.34a.749.749,0,0,0-.749.749V29.433H34.91V21.057a.749.749,0,0,0-.749-.749H28.294a.749.749,0,0,0-.749.749V27.7a.749.749,0,0,0,1.5,0V21.806h4.369v7.627h-13.9V11.1L31.227,1.708l12,9.617a.749.749,0,1,0,.937-1.169L31.7.164a.749.749,0,0,0-.937,0L18.291,10.156a.749.749,0,0,0-.281.584V30.182a.749.749,0,0,0,.749.749H43.7a.749.749,0,0,0,.749-.749V16.089A.749.749,0,0,0,43.7,15.34Z" transform="translate(53.49 677.794)" fill="#9f9f9f" stroke="#9f9f9f" stroke-width="1"/></g></svg>