<svg xmlns="http://www.w3.org/2000/svg" width="32.066" height="19.776" viewBox="0 0 32.066 19.776"><g transform="translate(0 -65.175)"><path d="M296.722,66.225v-1.05h-4.516v1.05h1.733V83.9h-1.733v1.05h4.516V83.9h-1.733V66.225Z" transform="translate(-264.657)" fill="#333e48"/><g transform="translate(0 67.417)"><path d="M.195,102.216,5.481,90.279a2.062,2.062,0,0,1,1.95-1.322h.195a2.033,2.033,0,0,1,1.928,1.322l5.286,11.937a1.627,1.627,0,0,1,.173.672,1.581,1.581,0,0,1-1.582,1.6,1.7,1.7,0,0,1-1.6-1.148l-1.018-2.383H4.138l-1.062,2.491a1.638,1.638,0,0,1-1.538,1.04A1.535,1.535,0,0,1,0,102.931,1.769,1.769,0,0,1,.195,102.216Zm9.381-4.2-2.1-5-2.1,5Z" transform="translate(0 -88.957)" fill="#1e252b"/><path d="M176.011,136.2v-.043c0-2.535,1.928-3.7,4.68-3.7a8.251,8.251,0,0,1,2.838.477v-.195c0-1.365-.845-2.123-2.492-2.123a7.55,7.55,0,0,0-2.275.325,1.394,1.394,0,0,1-.477.087,1.341,1.341,0,0,1-1.365-1.343,1.365,1.365,0,0,1,.888-1.278,10.11,10.11,0,0,1,3.7-.607,5.362,5.362,0,0,1,3.921,1.3,5.061,5.061,0,0,1,1.256,3.7v5.286a1.581,1.581,0,0,1-1.6,1.582,1.474,1.474,0,0,1-1.581-1.365v-.022a4.465,4.465,0,0,1-3.51,1.473C177.809,139.751,176.011,138.495,176.011,136.2Zm7.561-.758v-.585a5.107,5.107,0,0,0-2.1-.433c-1.408,0-2.275.563-2.275,1.6v.043c0,.888.737,1.408,1.8,1.408C182.532,137.476,183.572,136.631,183.572,135.44Z" transform="translate(-159.417 -124.131)" fill="#1e252b"/></g></g></svg>