<svg xmlns="http://www.w3.org/2000/svg" width="64.239" height="56.144" viewBox="0 0 64.239 56.144"><g transform="translate(0 0)" opacity="0.86"><path d="M99.329,189.152a15.641,15.641,0,0,0-26.339,0l-6.965,10.866a9.9,9.9,0,0,0,12.32,14.407l.128-.057a19.463,19.463,0,0,1,15.5.057,9.846,9.846,0,0,0,3.973.841,9.972,9.972,0,0,0,2.216-.251,9.9,9.9,0,0,0,6.132-15Zm3.293,20.2a6.1,6.1,0,0,1-7.132,1.629,23.235,23.235,0,0,0-18.658,0l-.084.037A6.135,6.135,0,0,1,69.2,202.05l6.966-10.866a11.876,11.876,0,0,1,20,0l6.965,10.866a6.1,6.1,0,0,1-.5,7.3Zm0,0" transform="translate(-56.372 -159.121)" fill="#ffe364"/><path d="M11.529,116.5a7.6,7.6,0,0,0,4.433-4.7,9.812,9.812,0,0,0-.173-6.765A9.818,9.818,0,0,0,11.381,99.9a7.6,7.6,0,0,0-6.438-.519c-4.162,1.6-6.072,6.743-4.257,11.467a9.172,9.172,0,0,0,8.249,6.134,7.191,7.191,0,0,0,2.594-.481ZM4.2,109.5c-1.069-2.784-.13-5.745,2.1-6.6a3.493,3.493,0,0,1,1.261-.232,4.247,4.247,0,0,1,2.027.545,6.048,6.048,0,0,1,2.692,3.179,6.044,6.044,0,0,1,.135,4.163,3.893,3.893,0,0,1-2.231,2.436h0c-2.223.857-4.9-.71-5.977-3.491Zm0,0" transform="translate(0 -86.486)" fill="#ffe364"/><path d="M133.849,21.5c5.2,0,9.436-4.823,9.436-10.75S139.052,0,133.849,0s-9.435,4.824-9.435,10.753S128.646,21.5,133.849,21.5Zm0-17.738c3.126,0,5.67,3.135,5.67,6.987s-2.544,6.985-5.67,6.985-5.67-3.134-5.67-6.985,2.543-6.987,5.67-6.987Zm0,0" transform="translate(-108.804)" fill="#ffe364"/><path d="M289.878,59.348h0a7.691,7.691,0,0,0,2.43.393c3.794,0,7.492-2.762,8.9-7.006a10.544,10.544,0,0,0-.15-7.274,7.976,7.976,0,0,0-11.826-3.93,10.543,10.543,0,0,0-4.474,5.736c-1.713,5.154.582,10.573,5.116,12.081Zm-1.543-10.894a6.78,6.78,0,0,1,2.851-3.7,4.219,4.219,0,0,1,6.384,2.122,6.78,6.78,0,0,1,.068,4.673c-1.058,3.184-4.007,5.08-6.572,4.228S287.277,51.639,288.335,48.455Zm0,0" transform="translate(-248.538 -35.204)" fill="#ffe364"/><path d="M390.68,172.483h0c-3.588-2.65-8.954-1.5-11.963,2.562s-2.536,9.532,1.047,12.184a7.376,7.376,0,0,0,4.431,1.431,9.539,9.539,0,0,0,7.534-3.99c3.006-4.066,2.536-9.532-1.047-12.185Zm-1.979,9.945c-1.777,2.4-4.781,3.193-6.7,1.774s-2.032-4.522-.26-6.919a5.78,5.78,0,0,1,4.483-2.476,3.678,3.678,0,0,1,2.214.7c1.914,1.419,2.03,4.523.26,6.918Zm0,0" transform="translate(-329.468 -149.593)" fill="#ffe364"/></g></svg>