<svg xmlns="http://www.w3.org/2000/svg" width="103.463" height="105.1" viewBox="0 0 103.463 105.1"><path d="M661.969,748.348H661.6a15.059,15.059,0,0,0-14.922,15.158v38.667h30.218V763.507A15.059,15.059,0,0,0,661.969,748.348Zm-6.68,44.947a2.615,2.615,0,1,1,2.574-2.615A2.594,2.594,0,0,1,655.289,793.295Zm0-13.072a2.615,2.615,0,1,1,2.574-2.615A2.594,2.594,0,0,1,655.289,780.223Zm12.717,0a2.615,2.615,0,1,1,2.574-2.615A2.594,2.594,0,0,1,668.006,780.223Zm0-13.073a2.615,2.615,0,1,1,2.574-2.614A2.594,2.594,0,0,1,668.006,767.15Z" transform="translate(-609.936 -697.074)" fill="#f5f5f5"/><path d="M629.569,600.277H555.062a14.637,14.637,0,0,0-14.478,14.707V690.67a14.783,14.783,0,0,0,6.111,11.979V666.471c0-25.381,20.327-46.03,45.313-46.03h.843c24.986,0,45.313,20.649,45.313,46.03v13.445a3.577,3.577,0,1,1-7.153,0V666.471c0-21.375-17.118-38.764-38.16-38.764h-.843c-21.041,0-38.159,17.389-38.159,38.764v38.85c.4.034.8.056,1.214.056h2.948a3.7,3.7,0,0,1-.081-.766V666.59a34.569,34.569,0,0,1,5.12-18.153,3.543,3.543,0,0,1,4.929-1.151,3.667,3.667,0,0,1,1.134,5.008,27.223,27.223,0,0,0-4.03,14.3v38.021a3.727,3.727,0,0,1-.081.766h5.167V666.71a22.278,22.278,0,0,1,22.075-22.424h.373a22.277,22.277,0,0,1,22.075,22.424v38.668h4.133V666.591A26.81,26.81,0,0,0,592.257,639.6h-.609a26.17,26.17,0,0,0-14.388,4.3,3.543,3.543,0,0,1-4.944-1.081,3.669,3.669,0,0,1,1.065-5.023,33.227,33.227,0,0,1,18.267-5.457h.609c18.594,0,33.72,15.366,33.72,34.254v38.787h3.592a14.233,14.233,0,0,0,1.442-.074V692.511a3.577,3.577,0,1,1,7.153,0v9.973a14.785,14.785,0,0,0,5.883-11.814V614.984A14.637,14.637,0,0,0,629.569,600.277Z" transform="translate(-540.584 -600.277)" fill="#f5f5f5"/></svg>