<svg xmlns="http://www.w3.org/2000/svg" width="82" height="82" viewBox="0 0 82 82"><g transform="translate(477 -265)"><rect width="82" height="82" rx="5" transform="translate(-477 265)" fill="#00cfb3"/><g transform="translate(-465.441 275.616)"><path d="M655.5,748.348h-.216a8.687,8.687,0,0,0-8.608,8.744V779.4H664.1V757.092A8.687,8.687,0,0,0,655.5,748.348Zm-3.853,25.928a1.508,1.508,0,1,1,1.485-1.508A1.5,1.5,0,0,1,651.643,774.276Zm0-7.541a1.508,1.508,0,1,1,1.485-1.508A1.5,1.5,0,0,1,651.643,766.735Zm7.336,0a1.508,1.508,0,1,1,1.485-1.508A1.5,1.5,0,0,1,658.979,766.735Zm0-7.541a1.508,1.508,0,1,1,1.485-1.508A1.5,1.5,0,0,1,658.979,759.194Z" transform="translate(-625.481 -718.77)" fill="#f5f5f5"/><path d="M591.916,600.277h-42.98a8.443,8.443,0,0,0-8.352,8.484v43.661a8.528,8.528,0,0,0,3.525,6.91V638.462a26.378,26.378,0,0,1,26.139-26.553h.486a26.378,26.378,0,0,1,26.139,26.553v7.756a2.063,2.063,0,1,1-4.126,0v-7.756A22.214,22.214,0,0,0,570.735,616.1h-.486a22.214,22.214,0,0,0-22.013,22.361v22.411c.231.02.464.032.7.032h1.7a2.134,2.134,0,0,1-.047-.442V638.53a19.941,19.941,0,0,1,2.954-10.472,2.044,2.044,0,0,1,2.843-.664,2.116,2.116,0,0,1,.654,2.889,15.7,15.7,0,0,0-2.325,8.248v21.933a2.151,2.151,0,0,1-.047.442h2.981V638.6a12.851,12.851,0,0,1,12.734-12.936h.215A12.851,12.851,0,0,1,583.334,638.6v22.306h2.384V638.531a15.466,15.466,0,0,0-15.326-15.568h-.351a15.1,15.1,0,0,0-8.3,2.478,2.044,2.044,0,0,1-2.852-.624,2.116,2.116,0,0,1,.614-2.9,19.168,19.168,0,0,1,10.538-3.148h.351a19.63,19.63,0,0,1,19.452,19.76v22.375h2.072a8.214,8.214,0,0,0,.832-.043v-7.379a2.063,2.063,0,1,1,4.126,0v5.753a8.529,8.529,0,0,0,3.394-6.815V608.761A8.443,8.443,0,0,0,591.916,600.277Z" transform="translate(-540.584 -600.277)" fill="#f5f5f5"/></g></g></svg>