<svg xmlns="http://www.w3.org/2000/svg" xmlns:xlink="http://www.w3.org/1999/xlink" width="298.498" height="290.883" viewBox="0 0 298.498 290.883"><defs><linearGradient id="a" x1="0.718" y1="1" x2="0.486" y2="0.059" gradientUnits="objectBoundingBox"><stop offset="0" stop-color="#00b59d"/><stop offset="1" stop-color="#00d4b7"/></linearGradient><filter id="b" x="115.773" y="106.237" width="91" height="87" filterUnits="userSpaceOnUse"><feOffset dy="3" input="SourceAlpha"/><feGaussianBlur stdDeviation="3" result="c"/><feFlood flood-color="#101010" flood-opacity="0.259"/><feComposite operator="in" in2="c"/><feComposite in="SourceGraphic"/></filter></defs><g transform="translate(-3930.227 -1172.763)"><path d="M-41.539,321.921c122.589-70.681,128.612-53.388,190.98,0S195.33,528.584,92.025,560.208s14.984-74.954-94.872-83.276S-164.127,392.6-41.539,321.921Z" transform="translate(4042.763 897.592)" fill="url(#a)"/><g transform="translate(111.22 -354.667)"><g transform="matrix(1, 0, 0, 1, 3819.01, 1527.43)" filter="url(#b)"><g transform="translate(124.77 112.24)" fill="#fff" stroke="#0a3c91" stroke-width="3"><rect width="73" height="69" rx="21" stroke="none"/><rect x="1.5" y="1.5" width="70" height="66" rx="19.5" fill="none"/></g></g><g transform="translate(3963.725 1647.045)"><path d="M27.051,53.548h0A16.551,16.551,0,0,1,10.5,37V16.551A16.551,16.551,0,0,1,27.051,0h0A16.551,16.551,0,0,1,43.6,16.551V37A16.551,16.551,0,0,1,27.051,53.548Z" transform="translate(-10.5 0)" fill="#0a3c91"/><path d="M27.534,26.551,27.5,17.789V10l7.789,7.789Z" transform="translate(-10.949 -0.264)" fill="none" stroke="#fff" stroke-miterlimit="10" stroke-width="2"/><path d="M27.5,44.541V35.778l.034-8.172,7.755,8.172Z" transform="translate(-10.949 -0.729)" fill="none" stroke="#fff" stroke-miterlimit="10" stroke-width="2"/><line x2="9.699" y2="8.762" transform="translate(6.886 17.537)" fill="none" stroke="#fff" stroke-miterlimit="10" stroke-width="2"/><line x1="9.807" y2="8.762" transform="translate(6.815 26.3)" fill="none" stroke="#fff" stroke-miterlimit="10" stroke-width="2"/></g></g></g></svg>