<svg xmlns="http://www.w3.org/2000/svg" xmlns:xlink="http://www.w3.org/1999/xlink" width="242.462" height="294.183" viewBox="0 0 242.462 294.183"><defs><linearGradient id="a" x1="0.718" y1="1" x2="0.486" y2="0.059" gradientUnits="objectBoundingBox"><stop offset="0" stop-color="#00b59d"/><stop offset="1" stop-color="#00d4b7"/></linearGradient></defs><g transform="translate(-3493 -1172)"><path d="M-41.539,321.921c-77.809-73.836,128.612-53.388,190.98,0s26.066,197.8-4.04,235.434-20.914-35.1-130.77-43.421S36.271,395.757-41.539,321.921Z" transform="translate(3551.829 898.092)" fill="url(#a)"/><g transform="translate(3561.5 1250)"><path d="M52.672,136.438h0A42.171,42.171,0,0,1,10.5,94.267V42.172A42.171,42.171,0,0,1,52.672,0h0A42.171,42.171,0,0,1,94.844,42.172V94.267A42.171,42.171,0,0,1,52.672,136.438Z" transform="translate(0 0)" fill="#0a3c91"/><path d="M27.587,52.172,27.5,29.846V10L47.346,29.846Z" transform="translate(25.172 14.807)" fill="none" stroke="#fff" stroke-miterlimit="10" stroke-width="3"/><path d="M27.5,70.755V48.429l.087-20.823L47.346,48.429Z" transform="translate(25.172 40.876)" fill="none" stroke="#fff" stroke-miterlimit="10" stroke-width="3"/><line x2="24.713" y2="22.326" transform="translate(28.046 44.685)" fill="none" stroke="#fff" stroke-miterlimit="10" stroke-width="3"/><line x1="24.988" y2="22.326" transform="translate(27.865 67.011)" fill="none" stroke="#fff" stroke-miterlimit="10" stroke-width="3"/></g></g></svg>