<svg xmlns="http://www.w3.org/2000/svg" xmlns:xlink="http://www.w3.org/1999/xlink" width="305.328" height="291.681" viewBox="0 0 305.328 291.681"><defs><linearGradient id="a" x1="0.718" y1="1" x2="0.486" y2="0.059" gradientUnits="objectBoundingBox"><stop offset="0" stop-color="#00b59d"/><stop offset="1" stop-color="#00d4b7"/></linearGradient><filter id="b" x="76" y="108.879" width="153" height="120.281" filterUnits="userSpaceOnUse"><feOffset dy="3" input="SourceAlpha"/><feGaussianBlur stdDeviation="3" result="c"/><feFlood flood-opacity="0.161"/><feComposite operator="in" in2="c"/><feComposite in="SourceGraphic"/></filter><filter id="d" x="99.806" y="113" width="106.388" height="106.388" filterUnits="userSpaceOnUse"><feOffset dy="3" input="SourceAlpha"/><feGaussianBlur stdDeviation="3" result="e"/><feFlood flood-opacity="0.161"/><feComposite operator="in" in2="e"/><feComposite in="SourceGraphic"/></filter><filter id="f" x="99.806" y="100" width="106.388" height="106.388" filterUnits="userSpaceOnUse"><feOffset dy="3" input="SourceAlpha"/><feGaussianBlur stdDeviation="3" result="g"/><feFlood flood-opacity="0.161"/><feComposite operator="in" in2="g"/><feComposite in="SourceGraphic"/></filter><filter id="h" x="99.806" y="86" width="106.388" height="106.388" filterUnits="userSpaceOnUse"><feOffset dy="3" input="SourceAlpha"/><feGaussianBlur stdDeviation="3" result="i"/><feFlood flood-opacity="0.161"/><feComposite operator="in" in2="i"/><feComposite in="SourceGraphic"/></filter><filter id="j" x="99.806" y="69" width="106.388" height="106.388" filterUnits="userSpaceOnUse"><feOffset dy="3" input="SourceAlpha"/><feGaussianBlur stdDeviation="3" result="k"/><feFlood flood-opacity="0.161"/><feComposite operator="in" in2="k"/><feComposite in="SourceGraphic"/></filter></defs><g transform="translate(-4362 -1173)"><path d="M-44.864,310.819c122.589-70.681,83.535-23.733,145.9,29.655s94.29,188.11-9.014,219.734-54.316-61.95-164.172-70.272S-167.453,381.5-44.864,310.819Z" transform="translate(4508.376 897.972)" fill="url(#a)"/><g transform="translate(-9 6.694)"><g transform="matrix(1, 0, 0, 1, 4371, 1166.31)" filter="url(#b)"><path d="M30,0h75c16.569,0,30,14.163,30,31.633V70.648c0,17.471-13.431,31.633-30,31.633H30c-16.569,0-30-14.163-30-31.633V31.633C0,14.163,13.431,0,30,0Z" transform="translate(85 114.88)" fill="#fff"/></g><g transform="matrix(1, 0, 0, 1, 4371, 1166.31)" filter="url(#d)"><rect width="64" height="61" transform="translate(108.81 164.25) rotate(-45)" fill="#204443"/></g><g transform="matrix(1, 0, 0, 1, 4371, 1166.31)" filter="url(#f)"><path d="M0,0H64V61H0V0Z" transform="translate(108.81 151.25) rotate(-45)" fill="#00cfb3"/></g><g transform="matrix(1, 0, 0, 1, 4371, 1166.31)" filter="url(#h)"><path d="M0,0H64V61H0V0Z" transform="translate(108.81 137.25) rotate(-45)" fill="#c44e49"/></g><g transform="matrix(1, 0, 0, 1, 4371, 1166.31)" filter="url(#j)"><path d="M0,0H64V61H0V0Z" transform="translate(108.81 120.25) rotate(-45)" fill="#f1d045"/></g></g></g></svg>