<svg xmlns="http://www.w3.org/2000/svg" width="40.167" height="55.402" viewBox="0 0 40.167 55.402"><g transform="translate(-70.396 -0.001)"><path d="M183.017,84.676a.812.812,0,0,0,.812-.812V82.174a.812.812,0,0,0-1.623,0v1.691A.812.812,0,0,0,183.017,84.676Z" transform="translate(-99.71 -72.557)" fill="#ffe679"/><path d="M181.656,122.115h1.831a.812.812,0,1,0,0-1.623h-1.831a.812.812,0,0,0,0,1.623Z" transform="translate(-98.497 -107.453)" fill="#ffe679"/><path d="M104.842,40.789a7.4,7.4,0,0,0-3.323-13.307c.03-.167.383-2.576.383-2.576a40.842,40.842,0,0,0,.343-8.16,20.632,20.632,0,0,0-3.594-10.73.812.812,0,0,0-1.312.955,19.035,19.035,0,0,1,3.286,9.879,39.207,39.207,0,0,1-.331,7.832s-.333,2.319-.412,2.724H93.931V27.4l0-.02a6.571,6.571,0,0,0-1.065-4.7c-1.635-2.211-4.562-2.723-7.142-2.723a9.2,9.2,0,0,1-8.89-11.554A8.572,8.572,0,0,1,80.2,3.432,10.519,10.519,0,0,1,85.77,1.64a14.122,14.122,0,0,1,9.495,3.1A.812.812,0,1,0,96.3,3.49,15.783,15.783,0,0,0,85.69.019C80.416.279,76.52,3.26,75.267,7.993a10.838,10.838,0,0,0,.441,6.856,4.76,4.76,0,0,1-3.565.588.818.818,0,0,0-.816,1.294l.916,1.161L71.277,19a.822.822,0,0,0,.433,1.326,9.223,9.223,0,0,0,2.018.237,8.108,8.108,0,0,0,4.831-1.7,10.776,10.776,0,0,0,6.258,2.684,8.248,8.248,0,0,1-4.537,5.866,7.4,7.4,0,0,0-4.163,13.377A7.4,7.4,0,0,0,77.8,55.4h25.358a7.4,7.4,0,0,0,1.684-14.614ZM73.727,18.939q-.118,0-.238,0l.42-.481a.812.812,0,0,0,.026-1.037l-.2-.255a6.469,6.469,0,0,0,2.7-.855,10.8,10.8,0,0,0,.976,1.377A6.268,6.268,0,0,1,73.727,18.939ZM86.456,21.6c.215.01.429.024.643.043a6.568,6.568,0,0,1,4.054,1.536,4.814,4.814,0,0,1,1.14,4.209l0,.016H83.208A9.674,9.674,0,0,0,86.456,21.6Zm16.7,32.177H77.8a5.782,5.782,0,0,1,0-11.563h7.188a.812.812,0,1,0,0-1.623H80.481a5.782,5.782,0,0,1,0-11.563h20a5.782,5.782,0,1,1,0,11.563H88.235a.812.812,0,1,0,0,1.623h14.924a5.782,5.782,0,1,1,0,11.563Z" transform="translate(0 0)" fill="#ffe679"/></g></svg>