<svg xmlns="http://www.w3.org/2000/svg" width="64.812" height="64.813" viewBox="0 0 64.812 64.813"><g transform="translate(-0.006 0)"><g transform="translate(0.006 0.001)"><path d="M64.817,30.247a9.714,9.714,0,0,0-3.417-7.4,8.519,8.519,0,0,0,1.256-4.482A8.655,8.655,0,0,0,55.02,9.782,8.624,8.624,0,0,0,39.44,3.635a8.615,8.615,0,0,0-14.058,0A8.629,8.629,0,0,0,9.8,9.782a8.655,8.655,0,0,0-7.637,8.583,8.519,8.519,0,0,0,1.256,4.482,9.722,9.722,0,0,0,0,14.8,8.519,8.519,0,0,0-1.256,4.484,8.651,8.651,0,0,0,8.642,8.642h6.481V62.653H14.048a1.08,1.08,0,1,0,0,2.16H50.775a1.08,1.08,0,1,0,0-2.16H47.534V50.771h6.481a8.651,8.651,0,0,0,8.642-8.642A8.519,8.519,0,0,0,61.4,37.648,9.715,9.715,0,0,0,64.817,30.247ZM10.807,48.6a6.488,6.488,0,0,1-6.481-6.471A6.408,6.408,0,0,1,5.744,38.09a1.08,1.08,0,0,0-.17-1.518q-.034-.027-.07-.051a7.561,7.561,0,0,1,0-12.548,1.08,1.08,0,0,0,.291-1.5c-.016-.024-.033-.047-.051-.07a6.408,6.408,0,0,1-1.418-4.039,6.488,6.488,0,0,1,6.481-6.481l.28.015a1.057,1.057,0,0,0,.9-.418,1.074,1.074,0,0,0,.18-.972A6.481,6.481,0,0,1,24.226,5.88a.051.051,0,0,1-.008.032,8.5,8.5,0,0,0-.311,1.24c-.013.072-.023.146-.033.216a8.141,8.141,0,0,0-.029,2.41,8.655,8.655,0,0,0-7.637,8.587,8.519,8.519,0,0,0,1.256,4.482c-.019.017-.036.036-.055.053l-5.028-5.028A1.08,1.08,0,0,0,10.854,19.4l5.09,5.09a9.711,9.711,0,0,0,1.521,13.159,8.453,8.453,0,0,0-.946,2.184l-3.867-3.867a1.08,1.08,0,0,0-1.527,1.527L16.232,42.6c.009.15.011.3.027.448.011.1.031.2.045.3.028.2.056.4.1.594.025.117.059.229.089.344.044.173.089.347.144.515.039.12.085.234.13.352.059.158.119.316.188.47.052.117.108.23.165.344.073.148.149.294.23.432.064.108.132.216.2.324.086.137.175.271.269.4.075.108.152.208.232.31.1.127.2.25.307.371.085.1.172.193.26.286.108.117.228.228.347.338.059.056.115.119.176.173H10.807ZM31.331,62.653H19.449V50.771H31.331Zm1.08-48.609a1.08,1.08,0,0,0-1.08,1.08v7.654l-4.907-4.907A1.08,1.08,0,0,0,24.9,19.4l6.435,6.435V40.6l-4.637-4.637a1.08,1.08,0,0,0-1.527,1.527l6.165,6.165v4.954H24.85a6.488,6.488,0,0,1-6.481-6.481,6.408,6.408,0,0,1,1.418-4.039,1.08,1.08,0,0,0-.17-1.518q-.034-.027-.07-.051a7.561,7.561,0,0,1,0-12.548,1.08,1.08,0,0,0,.291-1.5c-.016-.024-.033-.047-.051-.07a6.408,6.408,0,0,1-1.418-4.039,6.488,6.488,0,0,1,6.481-6.481l.28.015a1.045,1.045,0,0,0,.9-.418,1.074,1.074,0,0,0,.18-.972,6.5,6.5,0,0,1-.275-1.866,6.38,6.38,0,0,1,.113-1.188.115.115,0,0,1,.006-.046,6.646,6.646,0,0,1,.338-1.142,6.472,6.472,0,0,1,12.046,0,6.652,6.652,0,0,1,.338,1.149.115.115,0,0,0,.006.046,6.381,6.381,0,0,1,.113,1.181,6.5,6.5,0,0,1-.275,1.866,1.074,1.074,0,0,0,.18.972,1.053,1.053,0,0,0,.9.418l.28-.015a6.488,6.488,0,0,1,6.481,6.481A6.408,6.408,0,0,1,45.035,22.4a1.08,1.08,0,0,0,.17,1.518q.034.027.07.051a7.561,7.561,0,0,1,0,12.548,1.08,1.08,0,0,0-.291,1.5c.016.024.033.047.051.07a6.408,6.408,0,0,1,1.418,4.039,6.488,6.488,0,0,1-6.481,6.481H33.491V33.86a1.043,1.043,0,0,0,.224-.149l7.021-7.021a1.08,1.08,0,0,0-1.527-1.527L33.491,30.88V15.124A1.08,1.08,0,0,0,32.411,14.044ZM45.374,62.653H33.491V50.771H45.374ZM59.027,38.02c.016.024.033.047.051.07A6.408,6.408,0,0,1,60.5,42.129a6.488,6.488,0,0,1-6.481,6.481H45.683c.062-.054.117-.117.176-.173.119-.108.234-.221.347-.338.089-.093.175-.189.26-.286.108-.121.208-.243.307-.371.08-.1.158-.2.232-.31.094-.131.183-.265.269-.4.069-.108.137-.216.2-.324.081-.143.157-.288.23-.432.056-.113.108-.227.165-.344.069-.153.129-.312.188-.47.044-.118.091-.232.13-.352.055-.169.1-.342.144-.515.029-.115.064-.227.089-.344.042-.2.07-.394.1-.594.014-.1.035-.2.045-.3a8.611,8.611,0,0,0,.051-.929,8.519,8.519,0,0,0-1.256-4.482,9.7,9.7,0,0,0,3.391-6.927l4.03-4.03a1.08,1.08,0,0,0-1.527-1.527l-2.766,2.766a9.7,9.7,0,0,0-3.127-5.077,8.52,8.52,0,0,0,1.256-4.487,8.655,8.655,0,0,0-7.637-8.583,8.141,8.141,0,0,0-.032-2.41c-.011-.073-.021-.147-.033-.216a8.5,8.5,0,0,0-.311-1.24.051.051,0,0,0-.008-.032,6.481,6.481,0,0,1,12.064,4.629,1.074,1.074,0,0,0,.18.972,1.057,1.057,0,0,0,.9.418l.283-.018A6.488,6.488,0,0,1,60.5,18.365,6.408,6.408,0,0,1,59.078,22.4a1.08,1.08,0,0,0,.17,1.518q.034.027.07.051a7.561,7.561,0,0,1,0,12.548A1.08,1.08,0,0,0,59.027,38.02Z" transform="translate(-0.006 -0.001)" fill="#ffe679"/></g></g></svg>